<svg width="230" height="231" viewBox="0 0 230 231" fill="none" xmlns="http://www.w3.org/2000/svg">
<path fill-rule="evenodd" clip-rule="evenodd" d="M228.214 135.37C227.725 138.112 227.14 140.82 226.461 143.491L86.577 3.60761C89.2479 2.92859 91.9561 2.34305 94.6979 1.85467L228.214 135.37ZM76.9421 6.51501C79.732 5.53697 82.5709 4.66344 85.4543 3.89911L226.169 144.614C225.405 147.497 224.531 150.336 223.553 153.126L76.9421 6.51501ZM229.914 110.572C229.774 106.927 229.464 103.326 228.992 99.7763L130.292 1.07607C126.742 0.604416 123.141 0.29469 119.497 0.154563L229.914 110.572ZM118.035 0.107546C117.027 0.0814109 116.015 0.068263 115 0.068263C112.356 0.068263 109.733 0.157502 107.133 0.333133L229.735 122.935C229.911 120.336 230 117.712 230 115.068C230 114.053 229.987 113.041 229.961 112.033L118.035 0.107546ZM229.639 124.253C229.374 127.599 228.967 130.905 228.422 134.164L95.9039 1.64648C99.1633 1.10175 102.469 0.694115 105.815 0.4297L229.639 124.253ZM225.753 83.9945C227.041 88.5967 228.051 93.3155 228.762 98.1314L131.937 1.30673C136.753 2.01759 141.472 3.027 146.074 4.31555L225.753 83.9945ZM148.065 4.89266C184.989 15.9583 214.11 45.079 225.176 82.0032L148.065 4.89266ZM223.182 154.169L75.8992 6.88632C73.21 7.85848 70.5674 8.92806 67.9757 10.0908L219.977 162.093C221.14 159.501 222.21 156.858 223.182 154.169ZM219.536 163.065L67.0032 10.5325C64.7687 11.5602 62.5727 12.6574 60.4181 13.8214L216.247 169.65C217.411 167.496 218.508 165.3 219.536 163.065ZM215.747 170.565C214.438 172.937 213.047 175.258 211.579 177.524L52.9938 18.9394L52.2867 19.6465L211.019 178.379C209.551 180.601 208.008 182.77 206.393 184.88L46.7227 25.2105L46.0156 25.9176L205.777 185.679C204.339 187.524 202.847 189.324 201.301 191.077L41.7058 31.4816L40.9987 32.1887L200.636 191.826C198.883 193.78 197.065 195.673 195.185 197.503L35.4346 37.7527L34.7275 38.4598L194.465 198.197C192.566 200.012 190.605 201.764 188.586 203.447L29.1635 44.024L28.4563 44.7311L187.812 204.086C185.997 205.573 184.136 207.004 182.231 208.379L24.1466 50.2951L23.4395 51.0022L181.406 208.969C179.223 210.516 176.984 211.988 174.692 213.383L17.8754 56.5662L17.1683 57.2733L173.809 213.914C171.467 215.311 169.071 216.627 166.625 217.858L12.2106 63.4437C22.6569 42.685 39.2065 25.5253 59.5034 14.3209L215.747 170.565ZM157.875 221.81C155.192 222.888 152.46 223.868 149.683 224.746L5.32222 80.3857C6.19978 77.608 7.17996 74.8758 8.2583 72.1937L157.875 221.81ZM158.879 221.4L8.66779 71.1889C9.62028 68.8833 10.6456 66.6154 11.7408 64.3881L165.68 218.327C163.453 219.423 161.185 220.448 158.879 221.4ZM4.98716 81.4649L148.603 225.081C145.711 225.964 142.769 226.735 139.785 227.391L2.67758 90.2833C3.33317 87.2988 4.10468 84.3576 4.98716 81.4649ZM138.62 227.64L2.4281 91.4481C1.84826 94.2256 1.36863 97.0399 0.993155 99.887L130.181 229.075C133.028 228.7 135.843 228.22 138.62 227.64ZM128.926 229.234L0.834583 101.143C0.42349 104.548 0.161259 108 0.0545904 111.491L118.578 230.014C122.068 229.907 125.52 229.645 128.926 229.234ZM115 230.068C115.734 230.068 116.467 230.061 117.197 230.048L0.0205742 112.871C0.00687837 113.602 0 114.334 0 115.068C0 118.192 0.12454 121.286 0.368924 124.347L105.721 229.699C108.782 229.944 111.876 230.068 115 230.068ZM72.8919 222.115C64.2613 218.717 56.1408 214.306 48.6768 209.028L21.0404 181.391C15.7622 173.928 11.351 165.807 7.95333 157.176L72.8919 222.115ZM75.1779 222.987L7.08157 154.89C5.212 149.826 3.68879 144.593 2.54068 139.221L90.8469 227.528C85.4753 226.379 80.2427 224.856 75.1779 222.987ZM92.6267 227.893L2.17502 137.442C1.42865 133.656 0.868021 129.804 0.503017 125.896L104.173 229.565C100.264 229.2 96.412 228.64 92.6267 227.893ZM42.8969 204.662L25.4062 187.171C30.5932 193.609 36.4597 199.475 42.8969 204.662Z" fill="url(#paint0_linear_37_196)" fill-opacity="0.4"/>
<defs>
<linearGradient id="paint0_linear_37_196" x1="46.4035" y1="25.2875" x2="180.57" y2="209.388" gradientUnits="userSpaceOnUse">
<stop stop-color="#ED7B50"/>
<stop offset="0.541667" stop-color="#488AEA"/>
<stop offset="1" stop-color="#2C2C2C"/>
</linearGradient>
</defs>
</svg>
